# xmcd
#
# Track frame offsets: 
#        150
#        19702
#        36723
#        58850
#        71075
#        93403
#        112013
#        125576
#        141392
#        154969
#        170822
#        191217
#
# Disc length: 2617 seconds
#
# Revision: 0
# Processed by: cddbd v1.5.2PL0 Copyright (c) Steve Scherf et al.
# Submitted via: ExactAudioCopy v1.3
#
DISCID=c10a370c
DTITLE=Peter Ward - Train To Key Biscayne
DYEAR=2019
DGENRE=Guitar Blues
TTITLE0=The Luther Johnson Thing
TTITLE1=A Westerly Sunday Night
TTITLE2=When You Are Mine
TTITLE3=Train To Key Biscayne
TTITLE4=I Saw Your Home
TTITLE5=Blues Elixir (Ronnie's Here)
TTITLE6=Supposedly
TTITLE7=Change (Ain't Never for the Good)
TTITLE8=As Long As I Have A Chance
TTITLE9=Coffee Song
TTITLE10=Something Always Slows Me Down
TTITLE11=Anthony's Son
EXTD=
EXTT0=
EXTT1=
EXTT2=
EXTT3=
EXTT4=
EXTT5=
EXTT6=
EXTT7=
EXTT8=
EXTT9=
EXTT10=
EXTT11=
PLAYORDER=
